HIERARCHY
ROOT SpineBase
{
  OFFSET 0.000000 0.000000 0.000000
  CHANNELS 6 Xposition Yposition Zposition Zrotation Xrotation Yrotation
  JOINT SpineMid
  {
    OFFSET 0.000000 29.899403 0.000000
    CHANNELS 3 Zrotation Xrotation Yrotation
    JOINT SpineShoulder
    {
      OFFSET 0.085561 22.155229 -0.795172
      CHANNELS 3 Zrotation Xrotation Yrotation
      JOINT Neck
      {
        OFFSET 0.065923 7.291420 -0.570088
        CHANNELS 3 Zrotation Xrotation Yrotation
        JOINT Head
        {
          OFFSET 0.242378 12.858673 3.366196
          CHANNELS 3 Zrotation Xrotation Yrotation
          End Site
          {
            OFFSET 0 0 0
          }
        }
      }
      JOINT ShoulderLeft
      {
        OFFSET 1.576078 -5.593420 -9.319958
        CHANNELS 3 Zrotation Xrotation Yrotation
        JOINT ElbowLeft
        {
          OFFSET 9.230693 -25.637396 -5.836318
          CHANNELS 3 Zrotation Xrotation Yrotation
          JOINT WristLeft
          {
            OFFSET 4.864331 -21.169821 4.338350
            CHANNELS 3 Zrotation Xrotation Yrotation
            JOINT HandLeft
            {
              OFFSET -1.498034 -4.671938 2.902377
              CHANNELS 3 Zrotation Xrotation Yrotation
              JOINT HandTipLeft
              {
                OFFSET 1.946388 -7.432093 0.956979
                CHANNELS 3 Zrotation Xrotation Yrotation
                End Site
                {
                  OFFSET 0 0 0
                }
              }
              JOINT ThumbLeft
              {
                OFFSET 4.174456 -0.840281 -2.184379
                CHANNELS 3 Zrotation Xrotation Yrotation
                End Site
                {
                  OFFSET 0 0 0
                }
              }
            }
          }
        }
      }
      JOINT ShoulderRight
      {
        OFFSET 13.299957 -8.603735 -13.260591
        CHANNELS 3 Zrotation Xrotation Yrotation
        JOINT ElbowRight
        {
          OFFSET -9.237310 -25.663645 -6.757009
          CHANNELS 3 Zrotation Xrotation Yrotation
          JOINT WristRight
          {
            OFFSET -16.800616 -0.078841 13.540936
            CHANNELS 3 Zrotation Xrotation Yrotation
            JOINT HandRight
            {
              OFFSET -1.539044 0.226827 5.168750
              CHANNELS 3 Zrotation Xrotation Yrotation
              JOINT HandTipRight
              {
                OFFSET -1.435626 -0.716840 1.577671
                CHANNELS 3 Zrotation Xrotation Yrotation
                End Site
                {
                  OFFSET 0 0 0
                }
              }
              JOINT ThumbRight
              {
                OFFSET 1.610455 -6.088622 -2.553484
                CHANNELS 3 Zrotation Xrotation Yrotation
                End Site
                {
                  OFFSET 0 0 0
                }
              }
            }
          }
        }
      }
    }
  }
  JOINT HipLeft
  {
    OFFSET -5.073288 0.185368 -5.718282
    CHANNELS 3 Zrotation Xrotation Yrotation
    JOINT KneeLeft
    {
      OFFSET 8.484053 -35.222038 4.949151
      CHANNELS 3 Zrotation Xrotation Yrotation
      JOINT AnkleLeft
      {
        OFFSET -1.361598 -33.097979 0.422573
        CHANNELS 3 Zrotation Xrotation Yrotation
        JOINT FootLeft
        {
          OFFSET 2.819858 -6.791486 2.522807
          CHANNELS 3 Zrotation Xrotation Yrotation
          End Site
          {
            OFFSET 0 0 0
          }
        }
      }
    }
  }
  JOINT HipRight
  {
    OFFSET 6.510546 1.863705 -1.050752
    CHANNELS 3 Zrotation Xrotation Yrotation
    JOINT KneeRight
    {
      OFFSET -14.126376 -38.303075 8.568406
      CHANNELS 3 Zrotation Xrotation Yrotation
      JOINT AnkleRight
      {
        OFFSET -0.564188 -28.706406 4.219721
        CHANNELS 3 Zrotation Xrotation Yrotation
        JOINT FootRight
        {
          OFFSET 7.261697 -7.983478 -2.818782
          CHANNELS 3 Zrotation Xrotation Yrotation
          End Site
          {
            OFFSET 0 0 0
          }
        }
      }
    }
  }
}
MOTION
Frames: 12
Frame Time: 0.033333
-53.708600 75.395253 244.935583 -0.000000 0.000000 -21.946221 -0.000000 0.000000 21.946221 -0.000000 0.000000 0.000000 -0.000000 0.000000 0.000000 0.000000 0.000000 0.000000 -0.000000 0.000000 0.000000 -0.000000 0.000000 0.000000 -0.000000 0.000000 0.000000 -0.000000 0.000000 0.000000 0.000000 0.000000 0.000000 0.000000 0.000000 0.000000 -0.000000 0.000000 0.000000 -0.000000 0.000000 0.000000 -0.000000 0.000000 0.000000 -0.000000 0.000000 0.000000 0.000000 0.000000 0.000000 0.000000 0.000000 0.000000 -0.000000 0.000000 21.946221 -0.000000 0.000000 0.000000 -0.000000 0.000000 0.000000 0.000000 0.000000 0.000000 -0.000000 0.000000 21.946221 -0.000000 0.000000 0.000000 -0.000000 0.000000 0.000000 0.000000 0.000000 0.000000
-53.490135 75.421887 244.633487 0.361121 0.310944 -22.393235 -0.215439 -0.425065 22.391456 -0.000000 0.000000 0.000000 -0.000000 0.000000 0.000000 0.000000 0.000000 0.000000 -0.000000 0.000000 0.000000 -0.000000 0.000000 0.000000 0.508585 0.878915 0.030416 -2.183347 -0.635951 -0.213407 0.000000 0.000000 0.000000 0.000000 0.000000 0.000000 -1.257402 0.998801 -0.017370 1.257896 -0.998180 0.039289 0.404407 1.280482 -0.415531 -4.679861 -2.894875 -5.417339 0.000000 0.000000 0.000000 0.000000 0.000000 0.000000 -0.215439 -0.425065 22.391456 -0.000000 0.000000 0.000000 -23.404058 41.954919 23.668140 0.000000 0.000000 0.000000 -0.909775 -0.977247 22.283401 0.851840 0.247601 0.097718 -0.762668 3.963052 3.876490 0.000000 0.000000 0.000000
-53.411798 75.410809 244.414547 0.555080 0.515816 -22.768333 -0.312231 -0.690426 22.763953 -0.000000 0.000000 0.000000 -0.000000 0.000000 0.000000 0.000000 0.000000 0.000000 -0.000000 0.000000 0.000000 -0.000000 0.000000 0.000000 0.898272 1.468476 0.076454 -4.012034 -1.027698 -0.457058 0.000000 0.000000 0.000000 0.000000 0.000000 0.000000 -2.407182 1.911278 -0.013798 2.408980 -1.909011 0.094098 0.719825 2.266894 -0.692431 -8.816931 -4.723481 -10.851704 0.000000 0.000000 0.000000 0.000000 0.000000 0.000000 -0.131059 -1.754068 22.480540 0.239326 1.052080 0.285080 -68.034816 57.776011 68.540365 0.000000 0.000000 0.000000 -1.498661 -1.624397 22.563883 1.453874 0.406938 0.170940 -1.536591 7.522777 7.404099 0.000000 0.000000 0.000000
-53.473587 75.362020 244.278763 0.581229 0.614019 -23.081264 -0.294021 -0.792711 23.076116 -0.000000 0.000000 0.000000 -0.000000 0.000000 0.000000 0.000000 0.000000 0.000000 -0.000000 0.000000 0.000000 0.654870 0.441214 0.232942 0.562107 1.412901 -0.089189 -5.465235 -1.275725 -0.699914 0.000000 0.000000 0.000000 0.000000 0.000000 0.000000 -3.410746 2.706034 0.004604 3.414327 -2.701511 0.156510 0.958697 3.015573 -0.848772 -11.841307 -5.503349 -15.508693 0.000000 0.000000 0.000000 0.000000 0.000000 0.000000 0.195741 -2.062466 22.754569 0.039468 1.360304 0.333281 -90.686794 56.435539 91.406375 0.000000 0.000000 0.000000 -1.780986 -1.939013 22.810033 1.814871 0.479647 0.223038 -2.122418 10.406622 10.249928 0.000000 0.000000 0.000000
-53.675503 75.275519 244.226134 0.439742 0.605479 -23.337666 -0.163926 -0.730138 23.334298 -0.000000 0.000000 0.000000 -0.000000 0.000000 0.000000 0.000000 0.000000 0.000000 -0.000000 0.000000 0.000000 0.672119 0.534864 0.257401 0.808097 1.553515 -0.028897 -6.510312 -1.442729 -0.923645 0.000000 0.000000 0.000000 0.000000 0.000000 0.000000 -4.231597 3.353972 0.030391 4.237059 -3.347064 0.217406 1.130104 3.564956 -0.896077 -13.313750 -5.415745 -18.762461 0.000000 0.000000 0.000000 0.000000 0.000000 0.000000 0.774699 -1.985281 23.041381 -0.372655 1.522180 0.320109 -98.766104 54.662142 99.720963 0.000000 0.000000 0.000000 -1.765543 -1.917991 23.033584 1.428440 -0.330065 0.196587 -1.806748 13.190975 12.186309 0.000000 0.000000 0.000000
-54.017545 75.151307 244.256661 0.131612 0.490615 -23.539375 0.075282 -0.502352 23.539141 -0.000000 0.000000 0.000000 -0.000000 0.000000 0.000000 0.000000 0.000000 0.000000 -0.000000 0.000000 0.000000 0.589032 0.601590 0.255825 1.119199 1.596527 0.079127 -7.114837 -1.568375 -1.117790 0.000000 0.000000 0.000000 0.000000 0.000000 0.000000 -4.838284 3.830546 0.055911 4.845346 -3.821601 0.267726 1.240434 3.940648 -0.840721 -13.020847 -4.663336 -20.256542 0.000000 0.000000 0.000000 0.000000 0.000000 0.000000 1.599143 -1.520645 23.334545 -0.996301 1.538152 0.244874 -101.117372 54.040073 102.360424 0.000000 0.000000 0.000000 -1.456348 -1.556686 23.236230 1.202383 -0.616967 0.195607 -1.287528 14.318891 12.794264 0.000000 0.000000 0.000000
-54.535302 75.029209 244.290957 -0.422951 0.353471 -23.738891 0.529463 -0.153288 23.740904 -0.000000 0.000000 0.000000 -0.000000 0.000000 0.000000 0.000000 0.000000 0.000000 -0.000000 0.000000 0.000000 -0.000000 0.000000 0.000000 1.858824 1.830894 0.546309 -6.344457 -0.933719 -1.076925 0.000000 0.000000 0.000000 0.000000 0.000000 0.000000 -4.495361 3.544124 0.046245 4.501092 -3.536838 0.231945 1.163927 3.729709 -0.688088 -16.948053 -8.940773 -18.615013 0.000000 0.000000 0.000000 0.000000 0.000000 0.000000 2.932245 -0.802151 23.657711 -1.941204 1.557748 0.129622 -99.500150 54.823502 101.686052 0.000000 0.000000 0.000000 -0.606425 -1.016393 23.542717 0.761488 -0.652515 0.108032 1.052774 14.013543 11.228037 0.000000 0.000000 0.000000
-55.183392 74.807217 244.505947 -1.091351 0.005999 -23.900000 1.000221 0.436645 23.896245 -0.000000 0.000000 0.000000 -0.000000 0.000000 0.000000 0.000000 0.000000 0.000000 -0.000000 0.000000 0.000000 -0.000000 0.000000 0.000000 1.901062 2.064283 0.493028 -5.566447 -1.742113 -1.086082 0.000000 0.000000 0.000000 0.000000 0.000000 0.000000 -4.651419 3.669483 0.051997 4.657618 -3.661605 0.246045 1.071006 3.468196 -0.512814 -17.228235 -8.533219 -19.378022 0.000000 0.000000 0.000000 0.000000 0.000000 0.000000 4.271510 0.502397 23.988019 -3.015569 1.269946 -0.085159 -89.377392 57.363196 92.152248 0.000000 0.000000 0.000000 1.000221 0.436645 23.896245 -0.891264 -1.301071 -0.115353 0.781570 11.180237 8.866808 0.000000 0.000000 0.000000
-55.500235 74.513884 244.672866 -1.302426 -0.258398 -23.831378 0.182974 0.380873 23.794951 0.981175 -0.015471 0.035409 -0.000000 0.000000 0.000000 0.000000 0.000000 0.000000 -0.000000 0.000000 0.000000 -0.000000 0.000000 0.000000 2.330912 1.417905 0.978615 -5.576140 -1.455726 -1.569598 0.000000 0.000000 0.000000 0.000000 0.000000 0.000000 -4.812953 3.789294 0.061389 4.819408 -3.781073 0.257090 1.184289 4.021724 0.144277 0.527203 3.400473 -13.632526 0.000000 0.000000 0.000000 0.000000 0.000000 0.000000 4.805347 1.309286 24.019962 -3.618023 1.015513 -0.233927 -75.666037 58.735246 78.409924 0.000000 0.000000 0.000000 1.087060 0.762522 23.821207 -0.998370 -1.561685 -0.129391 4.216577 10.029417 6.032266 0.000000 0.000000 0.000000
-56.361440 74.211089 245.136344 -2.196894 -0.884016 -23.740529 0.250966 0.697106 23.669229 1.686163 0.348644 0.054054 -0.000000 0.000000 0.000000 0.000000 0.000000 0.000000 -0.000000 0.000000 0.000000 -0.722683 0.747249 0.028393 3.510353 0.502804 1.337659 -5.665651 -0.996628 -1.772763 0.000000 0.000000 0.000000 0.000000 0.000000 0.000000 -4.906702 3.856259 0.067783 4.913243 -3.847914 0.262648 1.114011 3.912046 0.612679 7.605078 8.231515 -10.194392 0.000000 0.000000 0.000000 0.000000 0.000000 0.000000 6.269919 3.452875 24.121799 -4.925437 0.287138 -0.617610 -52.045425 56.416016 53.771667 0.000000 0.000000 0.000000 1.979472 2.735609 23.541841 -1.788785 -2.632626 -0.015744 8.276135 8.214132 2.564471 0.000000 0.000000 0.000000
-57.652357 73.938263 245.934619 -3.628319 -1.927047 -24.161487 0.453334 1.315910 24.018895 1.212067 0.719145 -0.020591 1.462291 0.197639 0.110056 0.000000 0.000000 0.000000 1.462291 0.197639 0.110056 -0.949565 0.805608 -0.002820 4.568919 0.433545 1.912198 -6.793251 -1.620774 -2.559546 0.000000 0.000000 0.000000 0.000000 0.000000 0.000000 -3.491739 4.067340 0.198689 4.951893 -3.871659 0.263403 1.074289 3.827049 0.799979 14.623562 13.745688 -8.047671 0.000000 0.000000 0.000000 0.000000 0.000000 0.000000 8.241762 6.851278 24.690960 -6.685409 -0.868146 -1.216047 -26.940030 44.206032 26.557169 0.000000 0.000000 0.000000 4.027188 5.956486 23.768514 -3.529097 -3.713771 -0.072179 10.013414 3.828009 -1.577650 0.000000 0.000000 0.000000
-58.737347 73.665232 246.624445 -4.642439 -2.678085 -24.020513 0.411868 1.443658 23.804862 1.493085 1.035205 -0.040318 2.180877 0.501897 0.156525 0.000000 0.000000 0.000000 2.180877 0.501897 0.156525 -0.945688 0.823006 0.002105 5.031312 0.545637 2.162612 -8.278437 -2.664041 -3.280768 0.000000 0.000000 0.000000 0.000000 0.000000 0.000000 -2.823972 4.383213 0.279885 4.997197 -3.889009 0.259960 1.008613 3.571860 0.693555 17.856367 16.700766 -7.935216 0.000000 0.000000 0.000000 0.000000 0.000000 0.000000 9.783685 9.511421 24.624452 -8.152679 -1.901907 -1.767285 -9.290899 15.578965 4.720186 0.000000 0.000000 0.000000 5.699565 8.398862 23.389754 -4.876947 -4.373978 -0.134971 6.922036 7.962212 3.009026 0.000000 0.000000 0.000000
